<?xml version="1.0" encoding="UTF-8"?>
<!-- (c) Copyright 2011   The Open University UK. See http://compendiumld.open.ac.uk/documentation/licence/lgpl-licence.html  -->
<!--  This file contains definitions of the core Compendium icons for CompendiumLD http://compendiumld.open.ac.uk/documentation/version1.0/QuickRefGuides/stencilsAndNodes/#standard 
Each icon is laid out on a 32 x 32 pixel co-ordinates, so transforms will be needed for smaller or larger relative sizes.
-->

<!DOCTYPE svg PUBLIC "-//W3C//DTD SVG 1.1//EN" "http://www.w3.org/Graphics/SVG/1.1/DTD/svg11.dtd">

<svg xmlns="http://www.w3.org/2000/svg" xmlns:xlink="http://www.w3.org/1999/xlink" width="100%"
	height="100%">
	<title>CompendiumLD core icon definitions</title>
	<desc>This file contains definitions of the core Compendium icons for CompendiumLD.</desc>
	<defs>
		<!-- Start of FILTER  definitionS -->
		<filter id="Adobe_OpacityMaskFilter" filterUnits="userSpaceOnUse" x="6.633" y="1.243"
			width="18.734" height="16.363">
			<feColorMatrix type="matrix" values="1 0 0 0 0  0 1 0 0 0  0 0 1 0 0  0 0 0 1 0"/>
		</filter>
		<!--  End of FILTER definitions  -->

		<!-- Start of ARGUMENT icon definition -->
		<g id="argument">
			<g>
				<radialGradient id="SVGID_ARGUMENT_1_" cx="15.6182" cy="27.7764" r="33.4821"
					gradientUnits="userSpaceOnUse">
					<stop offset="0" style="stop-color:#C0D9FE"/>
					<stop offset="1" style="stop-color:#7796FD"/>
				</radialGradient>
				<path style="fill:url(#SVGID_ARGUMENT_1_);"
					d="M16.001,31.499C7.455,31.499,0.5,24.548,0.5,16.001c0-8.547,6.954-15.499,15.501-15.499
		c8.546,0,15.499,6.952,15.499,15.499C31.5,24.548,24.548,31.499,16.001,31.499L16.001,31.499z"/>
				<path style="fill:#7796FD;"
					d="M16,0c8.837,0,16,7.163,16,16c0,8.836-7.162,16-16,16C7.165,32,0,24.836,0,16C0,7.163,7.165,0,16,0
		 M16,1C7.729,1,1,7.729,1,16c0,8.271,6.729,15,15,15s15-6.729,15-15C31,7.729,24.271,1,16,1L16,1z"
				/>
			</g>
			<mask maskUnits="userSpaceOnUse" x="6.633" y="1.243" width="18.734" height="16.363"
				id="SVGID_ARGUMENT_2_">
				<g style="filter:url(#Adobe_OpacityMaskFilter);">
					<linearGradient id="SVGID_ARGUMENT_3_" gradientUnits="userSpaceOnUse" x1="16"
						y1="1.2432" x2="16" y2="17.6069">
						<stop offset="0" style="stop-color:#FFFFFF"/>
						<stop offset="0.0532" style="stop-color:#CDCDCD"/>
						<stop offset="0.1184" style="stop-color:#979797"/>
						<stop offset="0.1844" style="stop-color:#696969"/>
						<stop offset="0.2498" style="stop-color:#434343"/>
						<stop offset="0.3144" style="stop-color:#262626"/>
						<stop offset="0.3781" style="stop-color:#111111"/>
						<stop offset="0.4405" style="stop-color:#040404"/>
						<stop offset="0.5" style="stop-color:#000000"/>
					</linearGradient>
					<ellipse style="fill:url(#SVGID_ARGUMENT_3_);" cx="16" cy="9.425" rx="9.367"
						ry="8.182"/>
				</g>
			</mask>
			<ellipse style="mask:url(#SVGID_ARGUMENT_2_);fill:#FFFFFF;" cx="16" cy="9.425"
				rx="9.367" ry="8.182"/>
			<g>
				<line style="fill:none;stroke:#0A3104;stroke-width:2;stroke-linecap:round;"
					x1="10.242" y1="6.729" x2="10.242" y2="15.729"/>
				<line style="fill:none;stroke:#0A3104;stroke-width:2;stroke-linecap:round;"
					x1="5.742" y1="11.229" x2="14.742" y2="11.229"/>
			</g>
			<line style="fill:none;stroke:#510005;stroke-width:2;stroke-linecap:round;" x1="17.074"
				y1="21.444" x2="26.074" y2="21.444"/>
			<line style="fill:none;stroke:#4D4D4D;stroke-width:2;stroke-linecap:round;" x1="8.158"
				y1="24.312" x2="24.992" y2="7.478"/>
		</g>
		<!-- End of  ARGUMENT icon definition -->

		<!-- Start of DECISION icon definition -->
		<g id="decision">
			<g>
				<radialGradient id="SVGID_DECISION_1_" cx="15.6182" cy="27.7764" r="33.4821"
					gradientUnits="userSpaceOnUse">
					<stop offset="0" style="stop-color:#F4E4D2"/>
					<stop offset="1" style="stop-color:#D09568"/>
				</radialGradient>
				<path style="fill:url(#SVGID_DECISION_1_);"
					d="M16.001,31.499C7.454,31.499,0.5,24.548,0.5,16.001c0-8.547,6.954-15.499,15.501-15.499
		c8.546,0,15.499,6.952,15.499,15.499C31.5,24.548,24.547,31.499,16.001,31.499L16.001,31.499z"/>
				<path style="fill:#D09568;"
					d="M16,0c8.838,0,16,7.163,16,16c0,8.836-7.162,16-16,16C7.164,32,0,24.836,0,16C0,7.163,7.164,0,16,0
		 M16,1C7.729,1,1,7.729,1,16c0,8.271,6.729,15,15,15c8.271,0,15-6.729,15-15C31,7.729,24.271,1,16,1L16,1z"
				/>
			</g>

			<mask maskUnits="userSpaceOnUse" x="6.633" y="1.243" width="18.734" height="16.363"
				id="SVGID_DECISION_2_">
				<g style="filter:url(#Adobe_OpacityMaskFilter);">
					<linearGradient id="SVGID_DECISION_3_" gradientUnits="userSpaceOnUse"
						x1="15.9995" y1="1.2432" x2="15.9995" y2="17.6069">
						<stop offset="0" style="stop-color:#FFFFFF"/>
						<stop offset="0.0532" style="stop-color:#CDCDCD"/>
						<stop offset="0.1184" style="stop-color:#979797"/>
						<stop offset="0.1844" style="stop-color:#696969"/>
						<stop offset="0.2498" style="stop-color:#434343"/>
						<stop offset="0.3144" style="stop-color:#262626"/>
						<stop offset="0.3781" style="stop-color:#111111"/>
						<stop offset="0.4405" style="stop-color:#040404"/>
						<stop offset="0.5" style="stop-color:#000000"/>
					</linearGradient>
					<ellipse style="fill:url(#SVGID_DECISION_3_);" cx="16" cy="9.425" rx="9.367"
						ry="8.182"/>
				</g>
			</mask>
			<ellipse style="mask:url(#SVGID_DECISION_2_);fill:#FFFFFF;" cx="16" cy="9.425"
				rx="9.367" ry="8.182"/>
			<g>
				<g>
					<path style="fill:#572907;stroke:#D09568;stroke-width:0.9286;"
						d="M15.682,24.826c-1.139-0.146-1.86-0.779-2.379-1.161
			c-0.871-0.638-6.209-3.075-6.094-3.888c0.1-0.696-2.521-0.429-4.134-0.474v-7.71c1.6,0.107,5.781-0.566,6.369-1.132
			c0.784-0.755,4.469-0.493,5.02-0.928c0.552-0.437,2.64-0.697,3.019-0.784c0.377-0.087,1.871,0.384,2.074-0.052
			c0.117,0.029,2.428-0.828-0.596,2.461c-0.986,1.073-1.74,1.334-2.93,1.683c-0.133-0.112,2.698,1.131,4.178,1.537
			c0.877,0.24,2.092,1.559,2.293,1.916c0.262,0.464,1.973,2.031,2.379,2.611c0.365,0.521,1.189,1.509,1.133,1.654
			c-0.059,0.146,0.029,0.203-0.088,0.521c-0.115,0.32-0.668,0.727-0.813,0.697s-0.439-0.135-0.668-0.088
			c-0.275,0.059-2.887-2.045-3.598-2.146c-0.406-0.058-0.289,0.029-0.289,0.436s0.84,0.435,1.652,1.538
			c0.402,0.544,0.838,1.012,0.785,1.422c-0.055,0.421-0.201,0.46-0.379,0.754c-0.219,0.364-0.717,0.34-1.305,0.262
			c-0.35-0.047-0.264,0.136-0.697-0.059c0.406,0.899-0.584,1.255-1.16,1.335c-0.51,0.071-1.285-0.568-1.857-0.813
			C17.648,25.892,16.263,25.232,15.682,24.826"/>
					<path style="fill:none;stroke:#D09568;stroke-width:0.9286;"
						d="M20.615,23.897c-0.492-0.667-2.09-2.582-2.438-2.757"/>
					<g>
						<path style="fill:#572907;stroke:#D09568;stroke-width:0.9286;"
							d="M7.906,18.21c-0.972-0.261-2.38,0.929-1.974,1.684
				c0.406,0.754,1.161,1.392,1.741,1.219C8.254,20.938,9.646,19.313,7.906,18.21z"/>
						<path style="fill:#572907;stroke:#D09568;stroke-width:0.9286;"
							d="M11.388,18.675c-0.291,0.696-1.161,1.334-1.625,1.334
				c-0.465,0-0.929,0.581-0.929,0.87v1.51l0.754,0.696c0.639,0.406,1.098,0.519,1.683-0.116c0.697-0.754,1.647-2.316,1.799-3.075
				C13.23,19.095,12.896,17.92,11.388,18.675z"/>
						<path style="fill:#572907;stroke:#D09568;stroke-width:0.9286;"
							d="M15.949,22.782c-0.354,0.39-0.755,0.869-1.057,0.869
				s-0.604,0.376-0.604,0.565v0.98l0.49,0.454c0.415,0.264,0.566,0.112,1.094-0.076c0.606-0.216,1.509-1.141,1.318-1.968
				C17.078,23.117,16.932,22.293,15.949,22.782z"/>
						<path style="fill:#572907;stroke:#D09568;stroke-width:0.9286;"
							d="M13.675,20.938c-0.416,0.479-1.045,1.201-1.463,1.201
				c-0.417,0-0.835,0.522-0.835,0.783v1.358l0.679,0.628c0.575,0.364,0.783,0.156,1.515-0.105c0.731-0.261,1.805-2.374,1.648-3.053
				C15.061,21.07,15.032,20.258,13.675,20.938z"
						/>
					</g>
					<path style="fill:#572907;stroke:#D09568;stroke-width:0.9286;"
						d="M20.848,19.545c0.596,0,2.758,1.784,3.338,2.045
			c0.332,0.149,0.738,0.073,0.928,0.189c0.127,0.077,0.697-0.377,0.813-0.697c0.117-0.318,0.029-0.376,0.088-0.521
			c0.057-0.146-0.768-1.133-1.133-1.654c-0.406-0.58-2.117-2.147-2.379-2.611c-0.201-0.357-1.363-1.479-2.176-1.886
			c-0.746-0.374-3.586-1.163-3.977-1.422c-0.521,0.813-2.64,1.653-4.381,1.131c-1.741-0.521,0.087-1.537,0.783-1.771
			c0.696-0.231,1.596-2.844,1.596-3.075c0-0.232,0.464-0.639,0.871-0.522s3.25,0.175,4.411-0.059
			c1.16-0.231,4.236,1.394,4.643,1.974c0.273,0.39,3.145,0.833,4.34,1.082l-0.002,8.695"/>
					<path style="fill:#FFFFFF;stroke:#D09568;stroke-width:0.9286;"
						d="M16.378,12.899c0.377-0.58,0.668-0.813,0.61-1.189"/>
				</g>
				<line style="fill:#572907;stroke:#D09568;stroke-width:0.9286;" x1="29.076"
					y1="20.461" x2="26.289" y2="20.461"/>
			</g>
		</g>

		<!-- End of  DECISION icon definition -->

		<!-- Start of ISSUE icon definition -->
		<g id="issue">
			<g>
				<radialGradient id="SVGID_ISSUE_1_" cx="15.6182" cy="27.7773" r="33.4801"
					gradientUnits="userSpaceOnUse">
					<stop offset="0" style="stop-color:#BCDFD7"/>
					<stop offset="1" style="stop-color:#5AA19F"/>
				</radialGradient>
				<path style="fill:url(#SVGID_ISSUE_1_);"
					d="M16,31.5c-8.547,0-15.499-6.952-15.499-15.499S7.453,0.502,16,0.502
		s15.499,6.952,15.499,15.499S24.547,31.5,16,31.5L16,31.5z"/>
				<path style="fill:#5AA19F;"
					d="M16,0c8.837,0,16,7.163,16,16c0,8.836-7.163,16-16,16C7.164,32,0,24.836,0,16C0,7.164,7.164,0,16,0
		 M16,1C7.729,1,1,7.729,1,16c0,8.271,6.729,15,15,15c8.271,0,15-6.729,15-15C31,7.729,24.271,1,16,1L16,1z"
				/>
			</g>

			<mask maskUnits="userSpaceOnUse" x="6.633" y="1.244" width="18.734" height="16.364"
				id="SVGID_ISSUE_2_">
				<g style="filter:url(#Adobe_OpacityMaskFilter);">
					<linearGradient id="SVGID_ISSUE_3_" gradientUnits="userSpaceOnUse" x1="15.9995"
						y1="1.2437" x2="15.9995" y2="17.6079">
						<stop offset="0" style="stop-color:#FFFFFF"/>
						<stop offset="0.0532" style="stop-color:#CDCDCD"/>
						<stop offset="0.1184" style="stop-color:#979797"/>
						<stop offset="0.1844" style="stop-color:#696969"/>
						<stop offset="0.2498" style="stop-color:#434343"/>
						<stop offset="0.3144" style="stop-color:#262626"/>
						<stop offset="0.3781" style="stop-color:#111111"/>
						<stop offset="0.4405" style="stop-color:#040404"/>
						<stop offset="0.5" style="stop-color:#000000"/>
					</linearGradient>
					<ellipse style="fill:url(#SVGID_ISSUE_3_);" cx="16" cy="9.425" rx="9.367"
						ry="8.182"/>
				</g>
			</mask>
			<ellipse style="mask:url(#SVGID_ISSUE_2_);fill:#FFFFFF;" cx="16" cy="9.425" rx="9.367"
				ry="8.182"/>
			<g>
				<path style="fill:#092726;"
					d="M15.526,19.641h-0.627c-0.021-1.133,0.033-1.979,0.161-2.539s0.459-1.333,0.994-2.317
		s0.887-1.774,1.055-2.37c0.168-0.597,0.253-1.333,0.253-2.21c0-1.355-0.266-2.355-0.796-2.998c-0.53-0.642-1.157-0.963-1.88-0.963
		c-0.551,0-1.015,0.148-1.392,0.443c-0.286,0.225-0.429,0.459-0.429,0.703c0,0.164,0.097,0.419,0.291,0.765
		c0.438,0.785,0.658,1.453,0.658,2.004c0,0.5-0.171,0.918-0.513,1.254c-0.342,0.336-0.767,0.504-1.277,0.504
		c-0.571,0-1.05-0.2-1.438-0.604c-0.387-0.402-0.581-0.935-0.581-1.598c0-1.203,0.52-2.258,1.56-3.166
		c1.04-0.907,2.493-1.361,4.358-1.361c1.979,0,3.484,0.473,4.52,1.415c1.035,0.943,1.553,2.083,1.553,3.418
		c0,0.969-0.266,1.863-0.795,2.684c-0.531,0.821-1.556,1.731-3.074,2.729c-1.02,0.673-1.69,1.273-2.012,1.796
		C15.794,17.756,15.597,18.559,15.526,19.641z M15.358,21.873c0.682,0,1.264,0.238,1.743,0.719c0.479,0.479,0.719,1.061,0.719,1.742
		c0,0.684-0.239,1.268-0.719,1.752c-0.479,0.484-1.061,0.727-1.743,0.727c-0.684,0-1.265-0.242-1.744-0.727
		c-0.479-0.484-0.719-1.068-0.719-1.752c0-0.682,0.239-1.264,0.719-1.742C14.093,22.111,14.674,21.873,15.358,21.873z"
				/>
			</g>
		</g>
		<!-- End of  ISSUE icon definition -->

		<!-- Start of LIST icon definition -->
		<g id="listnode">
			<g>
				<radialGradient id="SVGID_LIST_1_" cx="15.6187" cy="27.7754" r="33.4811"
					gradientUnits="userSpaceOnUse">
					<stop offset="0" style="stop-color:#DFC9B5"/>
					<stop offset="1" style="stop-color:#A18778"/>
				</radialGradient>
				<path style="fill:url(#SVGID_LIST_1_);"
					d="M16,31.498C7.453,31.498,0.501,24.547,0.501,16C0.501,7.454,7.453,0.501,16,0.501
		c8.545,0,15.5,6.952,15.5,15.499C31.5,24.547,24.545,31.498,16,31.498L16,31.498z"/>
				<path style="fill:#A18778;"
					d="M16,0c8.838,0,16,7.163,16,16c0,8.836-7.162,16-16,16C7.164,32,0,24.836,0,16C0,7.163,7.164,0,16,0
		 M16,1C7.729,1,1,7.729,1,16c0,8.271,6.729,15,15,15c8.271,0,15-6.729,15-15C31,7.729,24.271,1,16,1L16,1z"
				/>
			</g>

			<mask maskUnits="userSpaceOnUse" x="6.633" y="1.243" width="18.734" height="16.363"
				id="SVGID_LIST_2_">
				<g style="filter:url(#Adobe_OpacityMaskFilter);">
					<linearGradient id="SVGID_LIST_3_" gradientUnits="userSpaceOnUse" x1="15.9995"
						y1="1.2432" x2="15.9995" y2="17.6069">
						<stop offset="0" style="stop-color:#FFFFFF"/>
						<stop offset="0.0532" style="stop-color:#CDCDCD"/>
						<stop offset="0.1184" style="stop-color:#979797"/>
						<stop offset="0.1844" style="stop-color:#696969"/>
						<stop offset="0.2498" style="stop-color:#434343"/>
						<stop offset="0.3144" style="stop-color:#262626"/>
						<stop offset="0.3781" style="stop-color:#111111"/>
						<stop offset="0.4405" style="stop-color:#040404"/>
						<stop offset="0.5" style="stop-color:#000000"/>
					</linearGradient>
					<ellipse style="fill:url(#SVGID_LIST_3_);" cx="16" cy="9.425" rx="9.367"
						ry="8.182"/>
				</g>
			</mask>
			<ellipse style="mask:url(#SVGID_LIST_2_);fill:#FFFFFF;" cx="16" cy="9.425" rx="9.367"
				ry="8.182"/>
			<g>
				<circle style="fill:#2F1C11;" cx="8.683" cy="10.005" r="2.133"/>

				<line style="fill:none;stroke:#2F1C11;stroke-width:2.5597;stroke-linecap:round;"
					x1="13.803" y1="10.005" x2="24.682" y2="10.005"/>
				<circle style="fill:#2F1C11;" cx="8.683" cy="15.978" r="2.133"/>

				<line style="fill:none;stroke:#2F1C11;stroke-width:2.5597;stroke-linecap:round;"
					x1="13.803" y1="15.978" x2="24.682" y2="15.978"/>
				<circle style="fill:#2F1C11;" cx="8.683" cy="21.95" r="2.133"/>

				<line style="fill:none;stroke:#2F1C11;stroke-width:2.5597;stroke-linecap:round;"
					x1="13.803" y1="21.95" x2="24.682" y2="21.95"/>
			</g>
		</g>
		<!-- End of  LIST icon definition -->

		<!-- Start of MAP icon definition -->
		<g id="mapnode">
			<g>
				<radialGradient id="SVGID_MAP_1_" cx="15.7407" cy="27.8828" r="33.4792"
					gradientUnits="userSpaceOnUse">
					<stop offset="0" style="stop-color:#D3D5EB"/>
					<stop offset="1" style="stop-color:#8275FD"/>
				</radialGradient>
				<path style="fill:url(#SVGID_MAP_1_);"
					d="M16.123,31.605c-8.546,0-15.499-6.953-15.499-15.498c0-8.547,6.952-15.5,15.499-15.5
		c8.547,0,15.499,6.952,15.499,15.5C31.621,24.652,24.67,31.605,16.123,31.605L16.123,31.605z"/>
				<path style="fill:#8275FD;"
					d="M16.123,0.107c8.838,0,16,7.163,16,16c0,8.834-7.162,15.998-16,15.998c-8.836,0-16-7.164-16-15.998
		C0.123,7.27,7.287,0.107,16.123,0.107 M16.123,1.107c-8.271,0-15,6.729-15,15c0,8.27,6.729,14.998,15,14.998
		c8.272,0,15-6.729,15-14.998C31.123,7.836,24.395,1.107,16.123,1.107L16.123,1.107z"
				/>
			</g>
			<circle style="fill:#241E69;" cx="11.64" cy="21.789" r="5.7"/>

			<mask maskUnits="userSpaceOnUse" x="6.755" y="1.35" width="18.735" height="16.363"
				id="SVGID_MAP_2_">
				<g style="filter:url(#Adobe_OpacityMaskFilter);">
					<linearGradient id="SVGID_MAP_3_" gradientUnits="userSpaceOnUse" x1="16.1226"
						y1="1.3501" x2="16.1226" y2="17.7134">
						<stop offset="0" style="stop-color:#FFFFFF"/>
						<stop offset="0.0532" style="stop-color:#CDCDCD"/>
						<stop offset="0.1184" style="stop-color:#979797"/>
						<stop offset="0.1844" style="stop-color:#696969"/>
						<stop offset="0.2498" style="stop-color:#434343"/>
						<stop offset="0.3144" style="stop-color:#262626"/>
						<stop offset="0.3781" style="stop-color:#111111"/>
						<stop offset="0.4405" style="stop-color:#040404"/>
						<stop offset="0.5" style="stop-color:#000000"/>
					</linearGradient>
					<ellipse style="fill:url(#SVGID_MAP_3_);" cx="16.123" cy="9.532" rx="9.367"
						ry="8.181"/>
				</g>
			</mask>
			<ellipse style="mask:url(#SVGID_MAP_2_);fill:#FFFFFF;" cx="16.123" cy="9.532" rx="9.367"
				ry="8.181"/>
			<circle style="fill:#241E69;" cx="23.653" cy="12.925" r="4.313"/>
			<circle style="fill:#241E69;" cx="9.89" cy="8.843" r="3.03"/>
			<line style="fill:none;stroke:#241E69;" x1="9.928" y1="8.783" x2="23.691" y2="12.923"/>
			<line style="fill:none;stroke:#241E69;" x1="9.928" y1="8.841" x2="11.619" y2="21.67"/>
			<line style="fill:none;stroke:#241E69;" x1="23.633" y1="12.982" x2="11.619" y2="21.67"/>
		</g>

		<!-- End of  MAP icon definition -->

		<!-- Start of MINUS icon definition -->
		<g id="con">
			<g>
				<radialGradient id="SVGID_MINUS_1_" cx="15.6182" cy="27.7773" r="33.4801"
					gradientUnits="userSpaceOnUse">
					<stop offset="0" style="stop-color:#FBDADB"/>
					<stop offset="1" style="stop-color:#C35B58"/>
				</radialGradient>
				<path style="fill:url(#SVGID_MINUS_1_);"
					d="M16.001,31.5C7.454,31.5,0.5,24.546,0.5,16c0-8.547,6.954-15.499,15.5-15.499
		S31.499,7.453,31.499,16C31.499,24.546,24.548,31.5,16.001,31.5L16.001,31.5z"/>
				<path style="fill:#C35B58;"
					d="M16,0c8.837,0,16,7.163,16,16c0,8.836-7.162,16-16,16C7.165,32,0,24.836,0,16C0,7.163,7.165,0,16,0
		 M16,1C7.729,1,1,7.729,1,16c0,8.271,6.729,15,15,15s15-6.729,15-15C31,7.729,24.271,1,16,1L16,1z"
				/>
			</g>

			<mask maskUnits="userSpaceOnUse" x="6.633" y="1.243" width="18.734" height="16.363"
				id="SVGID_MINUS_2_">
				<g style="filter:url(#Adobe_OpacityMaskFilter);">
					<linearGradient id="SVGID_MINUS_3_" gradientUnits="userSpaceOnUse" x1="16"
						y1="1.2432" x2="16" y2="17.6069">
						<stop offset="0" style="stop-color:#FFFFFF"/>
						<stop offset="0.0532" style="stop-color:#CDCDCD"/>
						<stop offset="0.1184" style="stop-color:#979797"/>
						<stop offset="0.1844" style="stop-color:#696969"/>
						<stop offset="0.2498" style="stop-color:#434343"/>
						<stop offset="0.3144" style="stop-color:#262626"/>
						<stop offset="0.3781" style="stop-color:#111111"/>
						<stop offset="0.4405" style="stop-color:#040404"/>
						<stop offset="0.5" style="stop-color:#000000"/>
					</linearGradient>
					<ellipse style="fill:url(#SVGID_MINUS_3_);" cx="16" cy="9.425" rx="9.367"
						ry="8.182"/>
				</g>
			</mask>
			<ellipse style="mask:url(#SVGID_MINUS_2_);fill:#FFFFFF;" cx="16" cy="9.425" rx="9.367"
				ry="8.182"/>
			<line style="fill:none;stroke:#510005;stroke-width:5;stroke-linecap:round;" x1="6.741"
				y1="15.978" x2="25.241" y2="15.978"/>
		</g>
		<!-- End of  MINUS icon definition -->

		<!-- Start of NOTE icon definition -->
		<g id="note">
			<g>
				<radialGradient id="SVGID_NOTE_1_" cx="15.6182" cy="27.7764" r="33.4821"
					gradientUnits="userSpaceOnUse">
					<stop offset="0" style="stop-color:#DEDADF"/>
					<stop offset="1" style="stop-color:#9B719C"/>
				</radialGradient>
				<path style="fill:url(#SVGID_NOTE_1_);"
					d="M16.002,31.499C7.454,31.499,0.5,24.548,0.5,16.001c0-8.547,6.954-15.499,15.502-15.499
		c8.545,0,15.498,6.952,15.498,15.499C31.5,24.548,24.547,31.499,16.002,31.499L16.002,31.499z"/>
				<path style="fill:#9B719C;"
					d="M16,0c8.838,0,16,7.163,16,16c0,8.836-7.162,16-16,16C7.164,32,0,24.836,0,16C0,7.163,7.164,0,16,0
		 M16,1C7.729,1,1,7.729,1,16c0,8.271,6.729,15,15,15s15-6.729,15-15C31,7.729,24.271,1,16,1L16,1z"
				/>
			</g>

			<mask maskUnits="userSpaceOnUse" x="6.633" y="1.243" width="18.734" height="16.363"
				id="SVGID_NOTE_2_">
				<g style="filter:url(#Adobe_OpacityMaskFilter);">
					<linearGradient id="SVGID_NOTE_3_" gradientUnits="userSpaceOnUse" x1="15.9995"
						y1="1.2432" x2="15.9995" y2="17.6069">
						<stop offset="0" style="stop-color:#FFFFFF"/>
						<stop offset="0.0532" style="stop-color:#CDCDCD"/>
						<stop offset="0.1184" style="stop-color:#979797"/>
						<stop offset="0.1844" style="stop-color:#696969"/>
						<stop offset="0.2498" style="stop-color:#434343"/>
						<stop offset="0.3144" style="stop-color:#262626"/>
						<stop offset="0.3781" style="stop-color:#111111"/>
						<stop offset="0.4405" style="stop-color:#040404"/>
						<stop offset="0.5" style="stop-color:#000000"/>
					</linearGradient>
					<ellipse style="fill:url(#SVGID_NOTE_3_);" cx="16" cy="9.425" rx="9.367"
						ry="8.182"/>
				</g>
			</mask>
			<ellipse style="mask:url(#SVGID_NOTE_2_);fill:#FFFFFF;" cx="16" cy="9.425" rx="9.367"
				ry="8.182"/>
			<polygon style="fill:#310034;"
				points="13.318,18.888 23.359,7.464 26.68,10.344 16.641,21.768 12.343,23.144 12.374,23.167 "/>
			<g>
				<path style="fill:none;stroke:#310034;stroke-width:1.5;stroke-linecap:round;"
					d="M17.895,6.137
		C13.199,8.06,8.322,9.614,3.307,10.782c1.625,5.279,3.498,10.867,5.643,16.75c6.083-0.709,12.032-1.906,17.794-3.57
		C23.441,17.705,20.502,11.756,17.895,6.137z"
				/>
			</g>
		</g>
		<!-- End of  NOTE icon definition -->

		<!-- Start of PRO icon definition -->
		<g id="pro">
			<g>
				<radialGradient id="SVGID_PLUS_1_" cx="15.6187" cy="27.7773" r="33.4811"
					gradientUnits="userSpaceOnUse">
					<stop offset="0" style="stop-color:#D4E5CE"/>
					<stop offset="1" style="stop-color:#6FA05D"/>
				</radialGradient>
				<path style="fill:url(#SVGID_PLUS_1_);"
					d="M16,31.5C7.453,31.5,0.501,24.546,0.501,16C0.501,7.453,7.453,0.501,16,0.501
		c8.545,0,15.5,6.952,15.5,15.499C31.5,24.546,24.545,31.5,16,31.5L16,31.5z"/>
				<path style="fill:#6FA05D;"
					d="M16,0c8.838,0,16,7.163,16,16c0,8.836-7.162,16-16,16C7.164,32,0,24.836,0,16C0,7.163,7.164,0,16,0
		 M16,1C7.729,1,1,7.729,1,16c0,8.271,6.729,15,15,15c8.272,0,15-6.729,15-15C31,7.729,24.271,1,16,1L16,1z"
				/>
			</g>

			<mask maskUnits="userSpaceOnUse" x="6.633" y="1.243" width="18.734" height="16.363"
				id="SVGID_PLUS_2_">
				<g style="filter:url(#Adobe_OpacityMaskFilter);">
					<linearGradient id="SVGID_PLUS_3_" gradientUnits="userSpaceOnUse" x1="15.9995"
						y1="1.2432" x2="15.9995" y2="17.6069">
						<stop offset="0" style="stop-color:#FFFFFF"/>
						<stop offset="0.0532" style="stop-color:#CDCDCD"/>
						<stop offset="0.1184" style="stop-color:#979797"/>
						<stop offset="0.1844" style="stop-color:#696969"/>
						<stop offset="0.2498" style="stop-color:#434343"/>
						<stop offset="0.3144" style="stop-color:#262626"/>
						<stop offset="0.3781" style="stop-color:#111111"/>
						<stop offset="0.4405" style="stop-color:#040404"/>
						<stop offset="0.5" style="stop-color:#000000"/>
					</linearGradient>
					<ellipse style="fill:url(#SVGID_PLUS_3_);" cx="16" cy="9.425" rx="9.367"
						ry="8.182"/>
				</g>
			</mask>
			<ellipse style="mask:url(#SVGID_PLUS_2_);fill:#FFFFFF;" cx="16" cy="9.425" rx="9.367"
				ry="8.182"/>
			<line style="fill:none;stroke:#0A3104;stroke-width:5;stroke-linecap:round;" x1="15.991"
				y1="6.728" x2="15.991" y2="25.228"/>
			<line style="fill:none;stroke:#0A3104;stroke-width:5;stroke-linecap:round;" x1="6.741"
				y1="15.978" x2="25.24" y2="15.978"/>
		</g>
		<!-- End of  PLUS icon definition -->

		<!-- Start of POSITION icon definition -->
		<g id="position">
			<g>
				<radialGradient id="SVGID_POSITION_1_" cx="15.6187" cy="27.7773" r="33.4792"
					gradientUnits="userSpaceOnUse">
					<stop offset="0" style="stop-color:#F1E8AE"/>
					<stop offset="1" style="stop-color:#BD9E40"/>
				</radialGradient>
				<path style="fill:url(#SVGID_POSITION_1_);"
					d="M16.001,31.5c-8.547,0-15.499-6.952-15.499-15.499S7.454,0.5,16.001,0.5
		c8.547,0,15.498,6.954,15.498,15.501S24.548,31.5,16.001,31.5L16.001,31.5z"/>
				<path style="fill:#BD9E40;"
					d="M16,0c8.837,0,16,7.163,16,16c0,8.836-7.163,16-16,16C7.164,32,0,24.836,0,16C0,7.163,7.164,0,16,0
		 M16,1C7.729,1,1,7.729,1,16s6.729,15,15,15c8.271,0,15-6.729,15-15S24.271,1,16,1L16,1z"
				/>
			</g>

			<mask maskUnits="userSpaceOnUse" x="6.633" y="1.243" width="18.734" height="16.363"
				id="SVGID_POSITION_2_">
				<g style="filter:url(#Adobe_OpacityMaskFilter);">
					<linearGradient id="SVGID_POSITION_3_" gradientUnits="userSpaceOnUse"
						x1="15.9995" y1="1.2427" x2="15.9995" y2="17.606">
						<stop offset="0" style="stop-color:#FFFFFF"/>
						<stop offset="0.0532" style="stop-color:#CDCDCD"/>
						<stop offset="0.1184" style="stop-color:#979797"/>
						<stop offset="0.1844" style="stop-color:#696969"/>
						<stop offset="0.2498" style="stop-color:#434343"/>
						<stop offset="0.3144" style="stop-color:#262626"/>
						<stop offset="0.3781" style="stop-color:#111111"/>
						<stop offset="0.4405" style="stop-color:#040404"/>
						<stop offset="0.5" style="stop-color:#000000"/>
					</linearGradient>
					<ellipse style="fill:url(#SVGID_POSITION_3_);" cx="16" cy="9.424" rx="9.367"
						ry="8.181"/>
				</g>
			</mask>
			<ellipse style="mask:url(#SVGID_POSITION_2_);fill:#FFFFFF;" cx="16" cy="9.424"
				rx="9.367" ry="8.181"/>
			<g>
				<path
					d="M16.346,3.891c4.635,0,8.392,3.837,8.392,8.571c0,1.507-0.382,2.922-1.051,4.152l-0.17,0.302
		c-0.287,0.481-0.621,0.932-0.992,1.344c-0.667,1.001-1.457,2.418-1.972,4.15c-0.42,1.416-0.545-0.101-0.545,2.445
		c0,1.484-1.797,2.189-3.609,2.189c-1.858,0-3.734-0.742-3.705-2.146c0.047-2.248-0.209-1.416-0.714-2.66
		c-0.839-2.072-0.872-2.439-1.986-4.179c-1.27-1.502-2.039-3.457-2.039-5.598C7.954,7.728,11.71,3.891,16.346,3.891 M16.346,5.391
		c-3.8,0-6.892,3.172-6.892,7.071c0,1.7,0.598,3.344,1.685,4.629l0.064,0.076l0.054,0.083c0.968,1.512,1.21,2.131,1.693,3.365
		c0.118,0.301,0.253,0.646,0.421,1.061c0.092,0.227,0.143,0.293,0.22,0.394c0.556,0.723,0.635,1.318,0.603,2.86
		c0.084,0.16,0.874,0.615,2.206,0.615c1.309,0,2.109-0.446,2.109-0.689c0-1.471,0-2.136,0.555-2.712
		c0.014-0.037,0.031-0.089,0.052-0.16c0.467-1.57,1.194-3.104,2.162-4.556l0.061-0.091l0.073-0.081
		c0.31-0.344,0.585-0.717,0.818-1.108l0.151-0.269c0.557-1.026,0.857-2.214,0.857-3.417C23.237,8.563,20.146,5.391,16.346,5.391
		L16.346,5.391z"
				/>
			</g>
			<ellipse cx="16.35" cy="26.827" rx="3.647" ry="2.284"/>
			<ellipse cx="16.35" cy="25.469" rx="3.647" ry="2.285"/>
			<rect x="19.758" y="25.703" width="1.608" height="0.879"/>
			<rect x="11.298" y="25.678" width="1.705" height="0.93"/>
		</g>
		<!-- End of  POSITION icon definition -->

		<!-- Start of REFERENCE icon definition -->
		<g id="reference">
			<g>
				<radialGradient id="SVGID_REFERENCE_1_" cx="15.6187" cy="27.7764" r="33.4811"
					gradientUnits="userSpaceOnUse">
					<stop offset="0" style="stop-color:#DBDBDB"/>
					<stop offset="1" style="stop-color:#929292"/>
				</radialGradient>
				<path style="fill:url(#SVGID_REFERENCE_1_);"
					d="M16,31.499C7.453,31.499,0.501,24.547,0.501,16C0.501,7.454,7.453,0.5,16,0.5
		c8.545,0,15.5,6.954,15.5,15.5C31.5,24.547,24.545,31.499,16,31.499L16,31.499z"/>
				<path style="fill:#929292;"
					d="M16,0c8.838,0,16,7.163,16,16c0,8.836-7.162,16-16,16C7.164,32,0,24.836,0,16C0,7.163,7.164,0,16,0
		 M16,1C7.729,1,1,7.729,1,16c0,8.271,6.729,15,15,15s15-6.729,15-15C31,7.729,24.271,1,16,1L16,1z"
				/>
			</g>

			<mask maskUnits="userSpaceOnUse" x="6.633" y="1.243" width="18.734" height="16.363"
				id="SVGID_REFERENCE_2_">
				<g style="filter:url(#Adobe_OpacityMaskFilter);">
					<linearGradient id="SVGID_REFERENCE_3_" gradientUnits="userSpaceOnUse"
						x1="15.9995" y1="1.2432" x2="15.9995" y2="17.6069">
						<stop offset="0" style="stop-color:#FFFFFF"/>
						<stop offset="0.0532" style="stop-color:#CDCDCD"/>
						<stop offset="0.1184" style="stop-color:#979797"/>
						<stop offset="0.1844" style="stop-color:#696969"/>
						<stop offset="0.2498" style="stop-color:#434343"/>
						<stop offset="0.3144" style="stop-color:#262626"/>
						<stop offset="0.3781" style="stop-color:#111111"/>
						<stop offset="0.4405" style="stop-color:#040404"/>
						<stop offset="0.5" style="stop-color:#000000"/>
					</linearGradient>
					<ellipse style="fill:url(#SVGID_REFERENCE_3_);" cx="16" cy="9.425" rx="9.367"
						ry="8.182"/>
				</g>
			</mask>
			<ellipse style="mask:url(#SVGID_REFERENCE_2_);fill:#FFFFFF;" cx="16" cy="9.425"
				rx="9.367" ry="8.182"/>
			<g>
				<path style="fill:none;stroke:#1E1E1E;stroke-width:1.7766;"
					d="M17.332,19.903c0.32,0.166,0.445,0.563,0.279,0.883l-3.494,6.717
		c-0.168,0.321-0.563,0.446-0.885,0.278l-4.229-2.199c-0.322-0.167-0.446-0.563-0.28-0.884l3.494-6.717
		c0.167-0.321,0.563-0.446,0.884-0.279L17.332,19.903z"/>
				<path style="fill:none;stroke:#1E1E1E;stroke-width:1.7766;"
					d="M23.754,7.557c0.32,0.166,0.445,0.563,0.279,0.883l-3.494,6.717
		c-0.166,0.321-0.563,0.446-0.885,0.279l-4.229-2.201c-0.321-0.166-0.447-0.563-0.279-0.883l3.494-6.717
		c0.166-0.321,0.563-0.445,0.883-0.278L23.754,7.557z"/>
				<path style="fill:#1E1E1E;"
					d="M19.135,12.964c0.105,0.054,0.055,0.359-0.111,0.68l-3.495,6.718
		c-0.167,0.319-0.388,0.536-0.492,0.481l-1.387-0.721c-0.104-0.056-0.055-0.359,0.112-0.682l3.494-6.716
		c0.166-0.32,0.387-0.537,0.492-0.481L19.135,12.964z"
				/>
			</g>
		</g>
		<!-- End of  REFERENCE icon definition -->
		
		<!-- Start of TRASHBIN icon definition 	-->
		<g id="trashbin">
			<g>
				<radialGradient id="SVGID_TRASHBIN_1_" cx="15.7031" cy="27.8291" r="33.4801" gradientUnits="userSpaceOnUse">
					<stop offset="0" style="stop-color:#DBDBDB"/>
					<stop offset="1" style="stop-color:#929292"/>
				</radialGradient>
				<path style="fill:url(#SVGID_TRASHBIN_1_);" d="M16.084,31.552c-8.547,0-15.499-6.951-15.499-15.498c0-8.546,6.952-15.5,15.499-15.5
					s15.5,6.954,15.5,15.5C31.584,24.601,24.631,31.552,16.084,31.552L16.084,31.552z"/>
				<path style="fill:#929292;" d="M16.084,0.054c8.837,0,16,7.163,16,16c0,8.836-7.162,16-16,16c-8.836,0-16-7.164-16-16
					C0.084,7.217,7.249,0.054,16.084,0.054 M16.084,1.054c-8.271,0-15,6.729-15,15c0,8.271,6.729,15,15,15s15-6.729,15-15
					C31.084,7.783,24.355,1.054,16.084,1.054L16.084,1.054z"/>
			</g>
			
			<mask maskUnits="userSpaceOnUse" x="6.717" y="1.297" width="18.734" height="16.363" id="SVGID_TRASHBIN_2_">
				<g style="filter:url(#Adobe_OpacityMaskFilter);">
					<linearGradient id="SVGID_TRASHBIN_3_" gradientUnits="userSpaceOnUse" x1="16.084" y1="1.2969" x2="16.084" y2="17.6606">
						<stop offset="0" style="stop-color:#FFFFFF"/>
						<stop offset="0.0532" style="stop-color:#CDCDCD"/>
						<stop offset="0.1184" style="stop-color:#979797"/>
						<stop offset="0.1844" style="stop-color:#696969"/>
						<stop offset="0.2498" style="stop-color:#434343"/>
						<stop offset="0.3144" style="stop-color:#262626"/>
						<stop offset="0.3781" style="stop-color:#111111"/>
						<stop offset="0.4405" style="stop-color:#040404"/>
						<stop offset="0.5" style="stop-color:#000000"/>
					</linearGradient>
					<ellipse style="fill:url(#SVGID_TRASHBIN_3_);" cx="16.084" cy="9.479" rx="9.367" ry="8.182"/>
				</g>
			</mask>
			<ellipse style="mask:url(#SVGID_TRASHBIN_2_);fill:#FFFFFF;" cx="16.084" cy="9.479" rx="9.367" ry="8.182"/>
			<g>
				<linearGradient id="SVGID_TRASHBIN_4_" gradientUnits="userSpaceOnUse" x1="22.7422" y1="17.3672" x2="9.6743" y2="17.3672">
					<stop offset="0" style="stop-color:#FFFFFF"/>
					<stop offset="0.5" style="stop-color:#666666"/>
					<stop offset="1" style="stop-color:#808080"/>
				</linearGradient>
				<path style="fill:url(#SVGID_TRASHBIN_4_);stroke:#4D4D4D;stroke-width:0.8713;stroke-linejoin:round;" d="M22.74,11.397
					c0-0.007,0.002-0.013,0.002-0.02c0-1.239-2.924-2.243-6.534-2.243c-3.609,0-6.535,1.004-6.535,2.243
					c0,0.007,0.003,0.013,0.003,0.02H9.674l1.303,11.823c0,0.012-0.003,0.024-0.003,0.035c0,1.295,2.344,2.345,5.235,2.345
					c2.891,0,5.235-1.05,5.235-2.345c0-0.011-0.002-0.023-0.004-0.035l1.303-11.823H22.74z"/>
				<g>
					<linearGradient id="SVGID_TRASHBIN_5_" gradientUnits="userSpaceOnUse" x1="10.0005" y1="18.875" x2="22.418" y2="18.875">
						<stop offset="0" style="stop-color:#FFFFFF"/>
						<stop offset="0.5" style="stop-color:#666666"/>
						<stop offset="1" style="stop-color:#808080"/>
					</linearGradient>
					<path style="fill:url(#SVGID_TRASHBIN_5_);" d="M16.226,25.383c-2.72,0-5.017-0.974-5.017-2.127L10,12.377
						c1.015,0.875,3.357,1.462,6.208,1.462c2.817,0,5.186-0.595,6.209-1.472L21.234,23.12l0.008,0.136
						C21.242,24.409,18.945,25.383,16.226,25.383L16.226,25.383z"/>
					<g>
						<path style="fill:#4D4D4D;" d="M22.742,11.397l-0.002,0.03c0-0.01,0-0.02,0-0.03H22.742 M9.677,11.397
							c0.032,1.23,2.942,2.224,6.532,2.224c3.491,0,6.338-0.939,6.524-2.122l-1.283,11.646c0.004,0.036,0.012,0.074,0.012,0.111
							c0,1.295-2.344,2.345-5.235,2.345s-5.234-1.05-5.236-2.344h-0.009L9.674,11.397H9.677 M22.74,11.428
							c-0.002,0.024-0.006,0.047-0.008,0.071L22.74,11.428 M22.146,12.836c-1.307,0.805-3.664,1.22-5.938,1.22
							c-2.305,0-4.641-0.411-5.937-1.209l1.142,10.362c0.013,0.95,1.984,1.956,4.812,1.956c2.829,0,4.799-1.006,4.799-1.909
							c-0.004-0.036-0.012-0.123-0.008-0.159L22.146,12.836L22.146,12.836z"/>
					</g>
				</g>
				<g>
					<path style="fill-rule:evenodd;clip-rule:evenodd;fill:#FFFFFF;" d="M16.143,16.171c-0.296-0.405-0.938-0.414-1.325-0.111
						c-0.276,0.215-0.441,0.619-0.634,0.951c-0.169,0.291-0.343,0.56-0.448,0.784c0.54,0.298,1.073,0.605,1.604,0.913
						c0.359-0.655,0.739-1.289,1.12-1.922C16.326,16.564,16.281,16.36,16.143,16.171z M16.59,16.898
						c0.191,0.347,0.387,0.677,0.523,0.988c-0.131,0.125-0.34,0.171-0.467,0.299c0.705-0.006,1.279,0.012,1.773,0.02
						c0.309-0.537,0.613-1.078,0.932-1.605c-0.223,0.083-0.369,0.241-0.598,0.317c-0.301-0.296-0.305-0.978-0.783-1.063
						c-0.395-0.071-0.889-0.006-1.305,0c-0.331,0.004-0.686-0.037-0.878,0C16.207,16.021,16.371,16.501,16.59,16.898z M20.061,20.573
						c0.096-0.161,0.234-0.402,0.242-0.56c0.016-0.265-0.17-0.448-0.279-0.652c-0.221-0.408-0.475-0.965-0.672-1.25
						c-0.529,0.316-1.061,0.631-1.604,0.933c0.217,0.447,0.477,0.865,0.727,1.324c0.275,0.505,0.654,1.028,0.709,1.698
						C19.445,21.557,19.764,21.075,20.061,20.573z M13.046,18.912c-0.152,0.383-0.592,0.728-0.56,1.158
						c0.018,0.236,0.188,0.447,0.298,0.652c0.253,0.471,0.553,1.045,0.802,1.438c-0.041-0.431,0.16-0.734,0.317-1.009
						c0.255-0.442,0.517-0.87,0.784-1.286c0.152,0.059,0.296,0.225,0.447,0.224c-0.276-0.476-0.544-1.023-0.821-1.549
						c-0.603,0-1.207,0-1.81,0C12.653,18.696,12.899,18.755,13.046,18.912z M16.572,22.066c0.287,0.545,0.57,1.097,0.895,1.604
						c0-0.225-0.018-0.462,0.02-0.728c0.959,0.144,1.609-0.241,1.623-1.007c0.006-0.338-0.188-0.607-0.316-0.877
						c-0.43-0.012-0.908,0.024-1.307-0.019c-0.025-0.137,0.033-0.418-0.02-0.578C17.191,21.02,16.852,21.512,16.572,22.066z
						M14.016,21.115c-0.273,0.366-0.538,0.922-0.28,1.38c0.387,0.688,1.538,0.446,2.407,0.447c0-0.82,0.014-1.057,0.019-1.847
						C15.276,21.096,14.725,21.102,14.016,21.115z"/>
					<path style="fill-rule:evenodd;clip-rule:evenodd;fill:#FFFFFF;" d="M16.46,16.786c-0.381,0.633-0.761,1.267-1.12,1.922
						c-0.531-0.308-1.065-0.615-1.604-0.913c0.104-0.225,0.279-0.493,0.448-0.784c0.193-0.332,0.358-0.736,0.634-0.951
						c0.387-0.303,1.029-0.294,1.325,0.111C16.281,16.36,16.326,16.564,16.46,16.786z"/>
					<path style="fill-rule:evenodd;clip-rule:evenodd;fill:#FFFFFF;" d="M15.788,15.854c0.192-0.037,0.547,0.004,0.878,0
						c0.416-0.006,0.91-0.071,1.305,0c0.479,0.086,0.482,0.768,0.783,1.063c0.229-0.076,0.375-0.234,0.598-0.317
						c-0.318,0.527-0.623,1.068-0.932,1.605c-0.494-0.008-1.068-0.025-1.773-0.02c0.127-0.128,0.336-0.174,0.467-0.299
						c-0.137-0.312-0.332-0.642-0.523-0.988C16.371,16.501,16.207,16.021,15.788,15.854z"/>
					<path style="fill-rule:evenodd;clip-rule:evenodd;fill:#FFFFFF;" d="M19.184,22.066c-0.055-0.67-0.434-1.193-0.709-1.698
						c-0.25-0.459-0.51-0.877-0.727-1.324c0.543-0.302,1.074-0.616,1.604-0.933c0.197,0.285,0.451,0.842,0.672,1.25
						c0.109,0.204,0.295,0.388,0.279,0.652c-0.008,0.157-0.146,0.398-0.242,0.56C19.764,21.075,19.445,21.557,19.184,22.066z"/>
					<path style="fill-rule:evenodd;clip-rule:evenodd;fill:#FFFFFF;" d="M12.505,18.54c0.603,0,1.207,0,1.81,0
						c0.276,0.525,0.544,1.073,0.821,1.549c-0.151,0.001-0.295-0.165-0.447-0.224c-0.267,0.416-0.529,0.844-0.784,1.286
						c-0.158,0.274-0.358,0.578-0.317,1.009c-0.249-0.393-0.548-0.967-0.802-1.438c-0.111-0.205-0.281-0.416-0.298-0.652
						c-0.032-0.431,0.407-0.775,0.56-1.158C12.899,18.755,12.653,18.696,12.505,18.54z"/>
					<path style="fill-rule:evenodd;clip-rule:evenodd;fill:#FFFFFF;" d="M17.467,20.462c0.053,0.16-0.006,0.441,0.02,0.578
						c0.398,0.043,0.877,0.007,1.307,0.019c0.129,0.27,0.322,0.539,0.316,0.877c-0.014,0.766-0.664,1.15-1.623,1.007
						c-0.037,0.266-0.02,0.503-0.02,0.728c-0.324-0.507-0.607-1.059-0.895-1.604C16.852,21.512,17.191,21.02,17.467,20.462z"/>
					<path style="fill-rule:evenodd;clip-rule:evenodd;fill:#FFFFFF;" d="M16.162,21.096c-0.005,0.79-0.019,1.026-0.019,1.847
						c-0.87-0.001-2.02,0.241-2.407-0.447c-0.257-0.458,0.007-1.014,0.28-1.38C14.725,21.102,15.276,21.096,16.162,21.096z"/>
				</g>
			</g>
		</g>
		
		<!--	End of TRASHBIN icon definition -->

		<!-- Start of MARKERS definition  -->
		<marker id="arrowhead" markerWidth="5" markerHeight="10" refX="5" refY="5" orient="auto">
			<path d="M 0 0 5 5 0 10 Z"/>
		</marker>
		<!-- END of MARKERS definition -->
	</defs>
</svg>
